  0
SECTION
  2
HEADER
  9
$ACADVER
  1
AC1014
  9
$HANDSEED
  5
FFFF
  9
$MEASUREMENT
 70
     1
  0
ENDSEC
  0
SECTION
  2
TABLES
  0
TABLE
  2
VPORT
  5
8
330
0
100
AcDbSymbolTable
 70
     4
  0
VPORT
  5
2E
330
8
100
AcDbSymbolTableRecord
100
AcDbViewportTableRecord
  2
*ACTIVE
 70
     0
 10
0.0
 20
0.0
 11
1.0
 21
1.0
 12
210.0
 22
148.5
 13
0.0
 23
0.0
 14
10.0
 24
10.0
 15
10.0
 25
10.0
 16
0.0
 26
0.0
 36
1.0
 17
0.0
 27
0.0
 37
0.0
 40
341.0
 41
1.24
 42
50.0
 43
0.0
 44
0.0
 50
0.0
 51
0.0
 71
     0
 72
   100
 73
     1
 74
     3
 75
     0
 76
     0
 77
     0
 78
     0
  0
ENDTAB
  0
TABLE
  2
LTYPE
  5
5
330
0
100
AcDbSymbolTable
 70
     1
  0
LTYPE
  5
14
330
5
100
AcDbSymbolTableRecord
100
AcDbLinetypeTableRecord
  2
BYBLOCK
 70
     0
  3

 72
    65
 73
     0
 40
0.0
  0
LTYPE
  5
15
330
5
100
AcDbSymbolTableRecord
100
AcDbLinetypeTableRecord
  2
BYLAYER
 70
     0
  3

 72
    65
 73
     0
 40
0.0
  0
LTYPE
  5
16
330
5
100
AcDbSymbolTableRecord
100
AcDbLinetypeTableRecord
  2
CONTINUOUS
 70
     0
  3
Solid line
 72
    65
 73
     0
 40
0.0
  0
ENDTAB
  0
TABLE
  2
LAYER
  5
2
100
AcDbSymbolTable
 70
2
  0
LAYER
  5
50
100
AcDbSymbolTableRecord
100
AcDbLayerTableRecord
  2
0
 70
0
  6
CONTINUOUS
  0
LAYER
  5
51
100
AcDbSymbolTableRecord
100
AcDbLayerTableRecord
  2
Layer_1
 70
0
  6
CONTINUOUS
  0
ENDTAB
  0
TABLE
  2
STYLE
  5
3
330
0
100
AcDbSymbolTable
 70
     1
  0
STYLE
  5
11
330
3
100
AcDbSymbolTableRecord
100
AcDbTextStyleTableRecord
  2
STANDARD
 70
     0
 40
0.0
 41
1.0
 50
0.0
 71
     0
 42
2.5
  3
txt
  4

  0
ENDTAB
  0
TABLE
  2
VIEW
  5
6
330
0
100
AcDbSymbolTable
 70
     0
  0
ENDTAB
  0
TABLE
  2
UCS
  5
7
330
0
100
AcDbSymbolTable
 70
     0
  0
ENDTAB
  0
TABLE
  2
APPID
  5
9
330
0
100
AcDbSymbolTable
 70
     2
  0
APPID
  5
12
330
9
100
AcDbSymbolTableRecord
100
AcDbRegAppTableRecord
  2
ACAD
 70
     0
  0
ENDTAB
  0
TABLE
  2
DIMSTYLE
  5
A
330
0
100
AcDbSymbolTable
 70
     1
  0
DIMSTYLE
105
27
330
A
100
AcDbSymbolTableRecord
100
AcDbDimStyleTableRecord
  2
ISO-25
 70
     0
  3

  4

  5

  6

  7

 40
1.0
 41
2.5
 42
0.625
 43
3.75
 44
1.25
 45
0.0
 46
0.0
 47
0.0
 48
0.0
140
2.5
141
2.5
142
0.0
143
0.03937007874016
144
1.0
145
0.0
146
1.0
147
0.625
 71
     0
 72
     0
 73
     0
 74
     0
 75
     0
 76
     0
 77
     1
 78
     8
170
     0
171
     3
172
     1
173
     0
174
     0
175
     0
176
     0
177
     0
178
     0
270
     2
271
     2
272
     2
273
     2
274
     3
340
11
275
     0
280
     0
281
     0
282
     0
283
     0
284
     8
285
     0
286
     0
287
     3
288
     0
  0
ENDTAB
  0
TABLE
  2
BLOCK_RECORD
  5
1
330
0
100
AcDbSymbolTable
 70
     1
  0
BLOCK_RECORD
  5
1F
330
1
100
AcDbSymbolTableRecord
100
AcDbBlockTableRecord
  2
*MODEL_SPACE
  0
BLOCK_RECORD
  5
1B
330
1
100
AcDbSymbolTableRecord
100
AcDbBlockTableRecord
  2
*PAPER_SPACE
  0
ENDTAB
  0
ENDSEC
  0
SECTION
  2
BLOCKS
  0
BLOCK
  5
20
330
1F
100
AcDbEntity
  8
0
100
AcDbBlockBegin
  2
*MODEL_SPACE
 70
     0
 10
0.0
 20
0.0
 30
0.0
  3
*MODEL_SPACE
  1

  0
ENDBLK
  5
21
330
1F
100
AcDbEntity
  8
0
100
AcDbBlockEnd
  0
BLOCK
  5
1C
330
1B
100
AcDbEntity
 67
     1
  8
0
100
AcDbBlockBegin
  2
*PAPER_SPACE
  1

  0
ENDBLK
  5
1D
330
1B
100
AcDbEntity
 67
     1
  8
0
100
AcDbBlockEnd
  0
ENDSEC
  0
SECTION
  2
ENTITIES
  0
LWPOLYLINE
  5
100
100
AcDbEntity
  8
Layer_1
 62
7
100
AcDbPolyline
 90
13
 70
0
 10
85.470226
 20
562.101373
 30
0.0
 10
85.404706
 20
586.432469
 30
0.0
 10
73.626962
 20
586.432469
 30
0.0
 10
73.623762
 20
597.434229
 30
0.0
 10
117.761706
 20
597.427029
 30
0.0
 10
117.744746
 20
586.432557
 30
0.0
 10
106.328306
 20
586.432469
 30
0.0
 10
106.500762
 20
562.187221
 30
0.0
 10
117.721970
 20
562.132421
 30
0.0
 10
117.756370
 20
551.025349
 30
0.0
 10
73.734674
 20
551.040229
 30
0.0
 10
73.700354
 20
562.177821
 30
0.0
 10
85.470226
 20
562.101373
 30
0.0
  0
LWPOLYLINE
  5
101
100
AcDbEntity
  8
Layer_1
 62
7
100
AcDbPolyline
 90
40
 70
0
 10
355.565586
 20
617.825349
 30
0.0
 10
323.315586
 20
603.900349
 30
0.0
 10
323.265586
 20
603.900349
 30
0.0
 10
328.890586
 20
575.350349
 30
0.0
 10
293.740586
 20
567.600349
 30
0.0
 10
286.115586
 20
599.250349
 30
0.0
 10
278.365586
 20
597.550349
 30
0.0
 10
278.340546
 20
597.550349
 30
0.0
 10
282.740546
 20
575.350349
 30
0.0
 10
247.590546
 20
567.625349
 30
0.0
 10
240.015546
 20
599.650349
 30
0.0
 10
239.965546
 20
599.650349
 30
0.0
 10
232.315546
 20
597.725349
 30
0.0
 10
232.165546
 20
597.725349
 30
0.0
 10
236.590546
 20
575.375349
 30
0.0
 10
201.440546
 20
567.650349
 30
0.0
 10
193.715546
 20
599.375349
 30
0.0
 10
193.690506
 20
599.375349
 30
0.0
 10
186.065506
 20
597.725349
 30
0.0
 10
185.965506
 20
597.725349
 30
0.0
 10
190.440506
 20
575.375349
 30
0.0
 10
155.173818
 20
567.675349
 30
0.0
 10
147.423818
 20
599.675349
 30
0.0
 10
138.123818
 20
597.575349
 30
0.0
 10
138.098778
 20
586.450349
 30
0.0
 10
127.048778
 20
586.450349
 30
0.0
 10
127.023738
 20
562.225349
 30
0.0
 10
138.073738
 20
562.175349
 30
0.0
 10
138.198738
 20
551.025349
 30
0.0
 10
355.090426
 20
551.025349
 30
0.0
 10
427.890426
 20
551.575349
 30
0.0
 10
428.040426
 20
571.175349
 30
0.0
 10
416.915426
 20
571.275349
 30
0.0
 10
416.965426
 20
582.175349
 30
0.0
 10
428.240426
 20
582.125349
 30
0.0
 10
428.140426
 20
606.550349
 30
0.0
 10
416.865426
 20
606.550349
 30
0.0
 10
416.940386
 20
617.775349
 30
0.0
 10
355.565386
 20
617.825349
 30
0.0
 10
355.565586
 20
617.825349
 30
0.0
  0
LWPOLYLINE
  5
102
100
AcDbEntity
  8
Layer_1
 62
7
100
AcDbPolyline
 90
45
 70
0
 10
400.437006
 20
781.546113
 30
0.0
 10
368.187006
 20
767.621113
 30
0.0
 10
368.137006
 20
767.621113
 30
0.0
 10
373.762006
 20
739.071115
 30
0.0
 10
338.612006
 20
731.321115
 30
0.0
 10
330.987006
 20
762.971113
 30
0.0
 10
323.237006
 20
761.271113
 30
0.0
 10
323.211966
 20
761.271113
 30
0.0
 10
327.611966
 20
739.071115
 30
0.0
 10
292.461966
 20
731.346115
 30
0.0
 10
284.886966
 20
763.371113
 30
0.0
 10
284.836966
 20
763.371113
 30
0.0
 10
277.186966
 20
761.446113
 30
0.0
 10
277.036966
 20
761.446113
 30
0.0
 10
281.461966
 20
739.096115
 30
0.0
 10
246.311966
 20
731.371115
 30
0.0
 10
238.586966
 20
763.096113
 30
0.0
 10
238.561926
 20
763.096113
 30
0.0
 10
230.936926
 20
761.446113
 30
0.0
 10
230.836926
 20
761.446113
 30
0.0
 10
235.311926
 20
739.096115
 30
0.0
 10
200.161926
 20
731.371115
 30
0.0
 10
192.286926
 20
763.321113
 30
0.0
 10
184.661926
 20
761.446113
 30
0.0
 10
184.611926
 20
761.446113
 30
0.0
 10
189.161926
 20
739.121115
 30
0.0
 10
153.986926
 20
731.396115
 30
0.0
 10
146.236926
 20
763.396113
 30
0.0
 10
136.936926
 20
761.296113
 30
0.0
 10
136.911886
 20
750.171113
 30
0.0
 10
125.861886
 20
750.171113
 30
0.0
 10
125.836846
 20
725.946115
 30
0.0
 10
136.886846
 20
725.896115
 30
0.0
 10
137.011846
 20
714.746115
 30
0.0
 10
399.961846
 20
714.746115
 30
0.0
 10
529.454806
 20
715.296115
 30
0.0
 10
529.604806
 20
734.896115
 30
0.0
 10
518.479806
 20
734.996115
 30
0.0
 10
518.529806
 20
745.896115
 30
0.0
 10
529.804806
 20
745.846115
 30
0.0
 10
529.704806
 20
770.271113
 30
0.0
 10
518.429806
 20
770.271113
 30
0.0
 10
518.504766
 20
781.496113
 30
0.0
 10
400.436806
 20
781.546113
 30
0.0
 10
400.437006
 20
781.546113
 30
0.0
  0
LWPOLYLINE
  5
103
100
AcDbEntity
  8
Layer_1
 62
7
100
AcDbPolyline
 90
13
 70
0
 10
86.720865
 20
725.822139
 30
0.0
 10
86.655345
 20
750.153238
 30
0.0
 10
74.877602
 20
750.153238
 30
0.0
 10
74.874402
 20
761.154994
 30
0.0
 10
119.012342
 20
761.147794
 30
0.0
 10
118.995382
 20
750.153326
 30
0.0
 10
107.578942
 20
750.153238
 30
0.0
 10
107.751398
 20
725.907987
 30
0.0
 10
118.972606
 20
725.853187
 30
0.0
 10
119.007006
 20
714.746115
 30
0.0
 10
74.985314
 20
714.760995
 30
0.0
 10
74.950994
 20
725.898587
 30
0.0
 10
86.720865
 20
725.822139
 30
0.0
  0
LWPOLYLINE
  5
104
100
AcDbEntity
  8
Layer_1
 62
7
100
AcDbPolyline
 90
45
 70
0
 10
400.437010
 20
636.346117
 30
0.0
 10
368.187010
 20
650.271117
 30
0.0
 10
368.137010
 20
650.271117
 30
0.0
 10
373.762010
 20
678.821116
 30
0.0
 10
338.612010
 20
686.571116
 30
0.0
 10
330.987010
 20
654.921117
 30
0.0
 10
323.237010
 20
656.621117
 30
0.0
 10
323.211970
 20
656.621117
 30
0.0
 10
327.611970
 20
678.821116
 30
0.0
 10
292.461970
 20
686.546116
 30
0.0
 10
284.886970
 20
654.521117
 30
0.0
 10
284.836970
 20
654.521117
 30
0.0
 10
277.186970
 20
656.446117
 30
0.0
 10
277.036970
 20
656.446117
 30
0.0
 10
281.461970
 20
678.796116
 30
0.0
 10
246.311970
 20
686.521116
 30
0.0
 10
238.586970
 20
654.796117
 30
0.0
 10
238.561930
 20
654.796117
 30
0.0
 10
230.936930
 20
656.446117
 30
0.0
 10
230.836930
 20
656.446117
 30
0.0
 10
235.311930
 20
678.796116
 30
0.0
 10
200.161930
 20
686.521116
 30
0.0
 10
192.286930
 20
654.571117
 30
0.0
 10
184.661930
 20
656.446117
 30
0.0
 10
184.611930
 20
656.446117
 30
0.0
 10
189.161930
 20
678.771116
 30
0.0
 10
153.986930
 20
686.496116
 30
0.0
 10
146.236930
 20
654.496117
 30
0.0
 10
136.936930
 20
656.596117
 30
0.0
 10
136.911890
 20
667.721117
 30
0.0
 10
125.861890
 20
667.721117
 30
0.0
 10
125.836850
 20
691.946116
 30
0.0
 10
136.886850
 20
691.996116
 30
0.0
 10
137.011850
 20
703.146116
 30
0.0
 10
399.961850
 20
703.146116
 30
0.0
 10
529.454810
 20
702.596116
 30
0.0
 10
529.604810
 20
682.996116
 30
0.0
 10
518.479810
 20
682.896116
 30
0.0
 10
518.529810
 20
671.996116
 30
0.0
 10
529.804810
 20
672.046116
 30
0.0
 10
529.704810
 20
647.621117
 30
0.0
 10
518.429810
 20
647.621117
 30
0.0
 10
518.504770
 20
636.396117
 30
0.0
 10
400.436810
 20
636.346117
 30
0.0
 10
400.437010
 20
636.346117
 30
0.0
  0
LWPOLYLINE
  5
105
100
AcDbEntity
  8
Layer_1
 62
7
100
AcDbPolyline
 90
13
 70
0
 10
86.720869
 20
692.070092
 30
0.0
 10
86.655349
 20
667.738993
 30
0.0
 10
74.877606
 20
667.738993
 30
0.0
 10
74.874406
 20
656.737237
 30
0.0
 10
119.012346
 20
656.744437
 30
0.0
 10
118.995386
 20
667.738905
 30
0.0
 10
107.578946
 20
667.738993
 30
0.0
 10
107.751402
 20
691.984244
 30
0.0
 10
118.972610
 20
692.039044
 30
0.0
 10
119.007010
 20
703.146116
 30
0.0
 10
74.985318
 20
703.131236
 30
0.0
 10
74.950998
 20
691.993644
 30
0.0
 10
86.720869
 20
692.070092
 30
0.0
  0
LWPOLYLINE
  5
106
100
AcDbEntity
  8
Layer_1
 62
7
100
AcDbPolyline
 90
13
 70
0
 10
85.470226
 20
526.749324
 30
0.0
 10
85.404706
 20
502.418228
 30
0.0
 10
73.626962
 20
502.418228
 30
0.0
 10
73.623762
 20
491.416468
 30
0.0
 10
117.761706
 20
491.423668
 30
0.0
 10
117.744746
 20
502.418140
 30
0.0
 10
106.328306
 20
502.418228
 30
0.0
 10
106.500762
 20
526.663476
 30
0.0
 10
117.721970
 20
526.718276
 30
0.0
 10
117.756370
 20
537.825348
 30
0.0
 10
73.734674
 20
537.810468
 30
0.0
 10
73.700354
 20
526.672876
 30
0.0
 10
85.470226
 20
526.749324
 30
0.0
  0
LWPOLYLINE
  5
107
100
AcDbEntity
  8
Layer_1
 62
7
100
AcDbPolyline
 90
40
 70
0
 10
355.565586
 20
471.025348
 30
0.0
 10
323.315586
 20
484.950348
 30
0.0
 10
323.265586
 20
484.950348
 30
0.0
 10
328.890586
 20
513.500348
 30
0.0
 10
293.740586
 20
521.250348
 30
0.0
 10
286.115586
 20
489.600348
 30
0.0
 10
278.365586
 20
491.300348
 30
0.0
 10
278.340546
 20
491.300348
 30
0.0
 10
282.740546
 20
513.500348
 30
0.0
 10
247.590546
 20
521.225348
 30
0.0
 10
240.015546
 20
489.200348
 30
0.0
 10
239.965546
 20
489.200348
 30
0.0
 10
232.315546
 20
491.125348
 30
0.0
 10
232.165546
 20
491.125348
 30
0.0
 10
236.590546
 20
513.475348
 30
0.0
 10
201.440546
 20
521.200348
 30
0.0
 10
193.715546
 20
489.475348
 30
0.0
 10
193.690506
 20
489.475348
 30
0.0
 10
186.065506
 20
491.125348
 30
0.0
 10
185.965506
 20
491.125348
 30
0.0
 10
190.440506
 20
513.475348
 30
0.0
 10
155.173818
 20
521.175348
 30
0.0
 10
147.423818
 20
489.175348
 30
0.0
 10
138.123818
 20
491.275348
 30
0.0
 10
138.098778
 20
502.400348
 30
0.0
 10
127.048778
 20
502.400348
 30
0.0
 10
127.023738
 20
526.625348
 30
0.0
 10
138.073738
 20
526.675348
 30
0.0
 10
138.198738
 20
537.825348
 30
0.0
 10
355.090426
 20
537.825348
 30
0.0
 10
427.890426
 20
537.275348
 30
0.0
 10
428.040426
 20
517.675348
 30
0.0
 10
416.915426
 20
517.575348
 30
0.0
 10
416.965426
 20
506.675348
 30
0.0
 10
428.240426
 20
506.725348
 30
0.0
 10
428.140426
 20
482.300348
 30
0.0
 10
416.865426
 20
482.300348
 30
0.0
 10
416.940386
 20
471.075348
 30
0.0
 10
355.565386
 20
471.025348
 30
0.0
 10
355.565586
 20
471.025348
 30
0.0
  0
ENDSEC
  0
SECTION
  2
OBJECTS
  0
DICTIONARY
  5
C
330
0
100
AcDbDictionary
  3
ACAD_GROUP
350
D
  3
ACAD_MLINESTYLE
350
17
  0
DICTIONARY
  5
D
330
C
100
AcDbDictionary
  0
DICTIONARY
  5
1A
330
C
100
AcDbDictionary
  0
DICTIONARY
  5
17
330
C
100
AcDbDictionary
  3
STANDARD
350
18
  0
DICTIONARY
  5
19
330
C
100
AcDbDictionary
  0
ENDSEC
  0
EOF
